<?xml version="1.0" encoding="utf-8"?>
<!-- Generator: Adobe Illustrator 24.3.0, SVG Export Plug-In . SVG Version: 6.00 Build 0)  -->
<svg version="1.1" id="Layer_1" xmlns="http://www.w3.org/2000/svg" xmlns:xlink="http://www.w3.org/1999/xlink" x="0px" y="0px"
	 viewBox="0 0 300 60.2" style="enable-background:new 0 0 300 60.2;" xml:space="preserve">
<style type="text/css">
	.st0{fill:#FFFFFF;}
	.st1{font-family:'CenturyGothic-Bold';}
	.st2{font-size:33.3092px;}
	.st3{fill:#FFFFFF;stroke:#FFFFFF;stroke-miterlimit:10;}
</style>
<text transform="matrix(1 0 0 1 61.3117 42.0774)" class="st0 st1 st2">Diana’s Jewels</text>
<path class="st3" d="M30.4,53.4c-0.2,0-0.4-0.1-0.5-0.3L8.5,23.7c-0.2-0.3-0.2-0.8,0.1-1c0.1-0.1,0.3-0.2,0.4-0.2h42.8
	c0.3,0,0.6,0.3,0.6,0.7c0,0.2,0,0.3-0.1,0.4L30.9,53.1C30.7,53.3,30.6,53.4,30.4,53.4z M10.3,24l20.1,27.5L50.5,24H10.3z"/>
<path class="st3" d="M30.4,53.4c-0.3,0-0.5-0.2-0.6-0.4L19.2,23.6c-0.1-0.4,0-0.8,0.4-0.9c0.1,0,0.2-0.1,0.2-0.1H41
	c0.3,0,0.6,0.3,0.6,0.7c0,0.1,0,0.2,0,0.3L31,52.9C30.9,53.2,30.6,53.4,30.4,53.4z M20.7,24l9.7,26.8L40.1,24H20.7z"/>
<path class="st3" d="M51.8,24H9c-0.4,0-0.6-0.3-0.6-0.7c0-0.2,0-0.3,0.1-0.4l6.9-11.1c0.1-0.2,0.3-0.3,0.5-0.3H45
	c0.2,0,0.4,0.1,0.5,0.3l6.9,11.1c0.2,0.3,0.1,0.8-0.2,1C52.1,24,51.9,24,51.8,24z M10.2,22.6h40.4l-6-9.7H16.2L10.2,22.6z"/>
<path class="st3" d="M41,24H19.8c-0.4,0-0.6-0.3-0.6-0.7c0-0.1,0-0.2,0.1-0.3L24,11.9c0.1-0.3,0.3-0.4,0.6-0.4h11.9
	c0.2,0,0.5,0.2,0.6,0.4L41.8,23c0.2,0.4,0,0.8-0.3,0.9S41.1,24,41,24L41,24z M20.8,22.6H40l-4.1-9.7H24.8L20.8,22.6z"/>
</svg>
